<svg width="700" height="536" viewBox="0 0 700 536" fill="none" xmlns="http://www.w3.org/2000/svg">
<path d="M302.911 483.872C313.991 486.642 341.24 486.943 343.171 458.943C344.32 442.287 328.643 427.456 316.434 416.01C304.005 404.358 290.201 394.634 277.059 383.695C265.143 373.776 257.779 371.352 249.659 357.773C236.081 335.235 239.3 306.398 257.779 289.739C268.278 280.22 281.017 276.161 294.875 275.041C312.234 273.641 329.032 275.741 343.171 286.94C356.47 297.579 364.729 311.437 365.569 328.936C365.989 337.055 361.79 341.395 353.67 341.675C343.311 342.095 332.952 341.815 322.593 341.535C317.973 341.395 316.853 339.715 316.853 334.815C316.853 332.016 316.993 329.076 316.434 326.416C315.734 322.776 313.774 319.977 309.574 319.837C305.795 319.837 302.435 323.476 302.295 327.676C302.015 333.835 305.095 338.875 308.734 343.495C317.553 354.694 329.732 361.693 341.071 369.952C348.911 375.692 356.89 381.431 364.589 387.311C383.208 401.309 394.267 419.648 396.646 442.886C398.338 459.405 398.934 473.716 391.547 493.105C385.475 514.36 365.025 528.254 353.67 532.345C341.342 536.787 312.147 536.269 299.68 527.729C289.523 520.772 278.906 508.801 275.212 495.413C274.003 491.028 274.689 482.988 280.29 479.717C285.622 476.604 299.912 483.122 302.911 483.872Z" fill="#FF7300"/>
<path d="M396.927 27.1226C396.927 23.3429 397.207 19.5633 397.907 15.9236C399.167 9.2042 404.486 4.30464 410.926 5.14456C424.084 6.82441 437.383 8.78424 450.402 11.864C465.521 15.5036 473.64 27.5426 480.639 40.2814C489.039 55.1201 497.298 70.0988 505.977 84.7975C508.077 88.2972 511.297 91.3769 514.656 93.7567C519.696 97.2564 525.155 96.6964 529.495 92.3568C533.835 87.8772 537.614 82.6977 541.674 78.0781C544.894 74.4384 548.113 70.5187 551.893 67.439C556.933 63.3794 561.552 63.5194 566.732 67.299C585.21 80.8778 601.869 96.4164 616.707 113.775C623.847 122.174 627.346 132.393 630.846 142.612C640.085 170.47 649.324 198.327 659.683 225.905C663.043 235.004 669.483 242.983 674.522 251.383C679.702 259.782 685.161 268.041 690.341 276.44C691.461 278.26 692.3 280.5 692.72 282.74C693.56 287.219 690.481 290.719 686.001 290.859C683.481 290.859 680.822 290.859 678.302 290.439C659.123 286.659 640.085 282.32 621.887 274.901C606.488 268.601 595.709 258.242 591.789 241.583C587.31 222.685 582.83 203.647 578.211 184.749C577.231 180.969 576.251 177.189 574.431 173.69C570.231 165.43 561.972 163.47 554.413 168.93C551.613 170.89 549.373 173.55 546.853 176.069C543.914 179.009 541.254 182.369 538.174 185.169C528.235 194.408 515.636 193.568 507.797 182.509C502.617 175.229 498.558 167.11 493.938 159.411C491.978 156.051 489.879 152.691 487.359 149.752C483.719 145.132 478.26 143.452 473.78 145.272C468.46 147.232 467.481 151.851 467.481 156.611C467.621 166.97 467.9 177.329 468.04 187.548C468.04 190.208 467.76 193.008 467.341 195.528C466.221 201.827 462.721 205.327 456.142 204.907C440.883 204.067 425.624 202.947 410.366 201.267C401.406 200.287 396.367 194.128 395.667 185.029C395.247 179.569 395.527 173.97 395.527 168.37C395.527 146.392 396.787 51.9004 396.927 27.1226Z" fill="#FF7300"/>
<path d="M227.402 54.4205C227.402 57.7802 227.402 60.9999 227.402 64.3596C227.542 75.6986 222.223 83.5379 211.583 87.5976C202.064 91.0973 192.125 93.897 182.606 97.5367C171.827 101.736 161.328 106.496 150.829 111.395C147.469 112.935 144.529 115.455 141.87 118.115C140.33 119.515 139.35 121.895 138.93 123.994C137.67 129.874 141.31 133.234 146.909 131.134C154.889 128.194 162.728 124.554 170.707 121.615C180.226 118.115 189.885 114.475 199.685 111.675C212.143 108.176 219.703 113.775 220.403 126.514C220.823 133.653 220.123 140.933 219.283 148.072C218.303 156.751 212.983 161.791 204.444 164.171C187.506 168.79 170.567 173.55 153.629 178.449C140.89 182.089 135.43 189.648 135.29 202.807C135.15 216.806 135.29 230.665 135.15 244.664C135.01 262.442 127.731 270.981 109.953 273.781C78.3154 278.961 46.8182 284 15.181 289.04C14.481 289.18 13.6411 289.18 12.9412 289.32C4.54193 290.299 1.88217 287.36 3.98198 279.38C12.8012 245.224 24.1402 211.906 39.8188 180.269C61.0969 137.713 91.3342 103.416 128.151 74.4387C150.969 56.5203 175.327 40.8417 202.204 29.3628C205.704 27.9629 209.204 26.423 212.843 25.5831C220.543 23.9033 224.462 26.283 226.002 33.8424C227.122 40.5618 227.542 54.4205 227.402 54.4205Z" fill="#FF7300"/>
<path d="M203.604 278.68C215.643 280.5 221.383 285.68 224.182 297.438C231.742 329.916 239.301 362.533 246.72 395.01C254.56 429.027 262.259 463.044 270.098 497.061C271.358 502.52 272.478 507.84 273.318 513.299C274.858 522.538 271.078 529.118 261.839 530.518C253.86 531.638 245.461 530.798 237.201 530.238C232.442 529.958 227.682 528.978 223.063 527.858C216.063 526.178 210.884 521.978 209.484 514.839C207.104 502.38 205.704 489.781 203.324 477.322C202.344 472.143 200.805 466.683 197.865 462.484C192.405 455.064 174.767 452.265 166.508 456.604C161.328 459.264 158.528 463.884 157.548 469.483C156.149 477.322 155.449 485.162 153.629 493.001C151.249 503.5 145.789 506.86 135.15 504.76C128.291 503.36 121.432 501.82 114.572 500.14C112.472 499.58 110.233 498.741 108.273 497.761C99.7336 493.561 97.3538 488.801 99.3137 479.562C101.273 469.763 103.233 459.824 105.613 450.165C118.212 399.349 130.811 348.394 143.41 297.438C145.79 288.059 151.809 282.32 161.468 280.92C171.407 279.52 199.545 278.12 203.604 278.68ZM192.965 387.87C192.405 383.671 191.985 379.611 191.145 375.551C190.166 371.212 186.106 368.132 181.906 368.412C177.567 368.692 174.767 371.212 173.927 375.691C173.227 379.751 172.527 383.951 172.247 388.15C171.827 395.57 176.307 399.629 184.426 399.489C190.026 399.349 193.245 394.87 192.965 387.87Z" fill="#FF7300"/>
<path d="M310.275 130.573C310.275 94.7366 310.275 58.8998 310.275 23.0629C310.275 8.36425 316.574 1.0849 331.133 0.384966C343.872 -0.174984 356.751 -0.0349969 369.49 0.244978C380.129 0.524953 387.268 7.66432 387.968 18.1634C388.388 27.8225 388.388 37.3417 388.388 47.0008C388.528 92.3568 388.388 137.853 388.528 183.209C388.528 187.408 388.808 191.608 389.508 195.668C390.768 203.087 395.527 207.846 402.667 209.386C409.666 210.926 416.945 211.486 424.085 212.046C446.483 213.726 469.021 215.266 491.559 216.946C501.778 217.786 510.597 222.265 511.017 235.704C511.157 241.024 511.717 246.483 511.437 251.803C510.877 262.022 505.278 267.061 495.058 267.061C489.039 267.061 483.02 266.501 477 266.221C447.883 264.961 418.765 263.702 389.648 262.582C369.91 261.882 350.311 261.462 330.573 260.902C317.694 260.482 310.275 253.062 310.275 240.184C310.275 203.647 310.275 167.11 310.275 130.573Z" fill="#FF7300"/>
<path d="M402.946 358.193C403.086 346.854 396.507 340.555 386.008 340.834C377.049 341.114 372.989 337.055 372.429 328.236C371.449 315.357 367.109 303.738 360.11 292.959C359.27 291.699 358.43 290.439 357.73 289.179C354.091 281.76 357.87 275.32 366.13 275.32C379.008 275.32 392.027 275.46 404.906 275.88C427.164 276.58 449.282 277.56 471.54 278.4C476.16 278.54 480.779 278.82 485.539 279.24C492.538 279.94 496.178 283.86 496.178 290.719C496.178 301.778 496.178 312.837 496.038 324.036C495.898 333.835 490.998 339.155 481.199 340.554C478.819 340.834 476.44 340.974 474.06 341.254C467.2 341.954 462.581 346.574 462.581 353.433C462.721 378.211 463.141 402.849 463.281 427.627C463.421 454.504 463.421 481.242 463.281 508.12C463.281 517.219 457.961 523.658 449.002 525.198C437.663 527.158 426.184 528.558 414.705 529.678C407.986 530.378 405.186 527.858 403.786 520.998C403.366 518.479 403.226 515.959 403.226 513.439C403.086 487.541 402.526 384.231 402.946 358.193Z" fill="#FF7300"/>
<path d="M304.815 243.123C304.815 253.342 299.775 260.062 289.556 260.762C274.297 261.741 258.899 261.881 243.64 261.741C236.081 261.601 231.601 255.722 231.601 247.603C231.881 188.108 232.161 128.613 232.581 69.1186C232.721 56.9397 233.001 44.9008 233.281 32.7219C233.561 22.3628 237.481 16.0634 247.56 13.4036C260.578 10.0439 273.877 7.38412 287.316 5.70427C298.795 4.3044 304.115 9.76391 304.115 21.3829C304.255 58.3396 304.115 95.4363 304.115 132.393C304.255 132.533 304.815 206.306 304.815 243.123Z" fill="#FF7300"/>
<path d="M619.227 383.391C619.367 385.911 620.067 400.05 621.607 408.169C622.587 413.489 625.667 418.108 631.686 419.088C637.706 420.068 642.745 417.548 646.385 412.929C648.625 410.269 650.445 406.769 651.144 403.409C652.404 397.11 656.044 393.47 661.784 391.09C670.743 387.451 679.562 383.671 688.381 380.031C695.66 376.952 699.3 379.192 699.58 387.031C699.86 398.09 698.32 409.009 692.721 418.808C680.262 441.066 663.183 458.704 638.686 467.244C610.688 477.043 584.65 464.864 574.851 436.866C570.372 424.128 567.992 410.409 566.312 396.97C563.932 377.092 563.512 357.214 569.112 337.615C574.291 319.417 584.09 304.578 601.729 296.179C615.028 289.879 629.026 289.18 643.165 292.119C663.043 296.319 679.422 306.398 691.741 322.357C696.36 328.376 700 335.235 700 343.215C700 349.094 699.16 350.914 693.421 352.174C683.202 354.274 672.843 356.094 662.343 357.493C656.324 358.333 652.124 355.114 651.144 348.674C649.605 339.715 646.385 337.615 639.106 336.495C633.226 335.515 626.927 339.155 624.407 346.154C621.887 353.014 620.627 360.293 619.507 367.433C618.947 373.032 619.087 380.871 619.227 383.391Z" fill="#FF7300"/>
<path d="M0.0622167 326.556C0.0622167 321.517 -0.0777708 318.157 0.0622167 314.657C0.342192 306.398 3.5619 302.198 11.8212 300.659C21.0603 298.979 30.4395 297.719 39.8187 296.319C64.0365 292.819 88.2543 289.32 112.472 285.96C116.812 285.4 121.151 284.98 125.491 284.84C132.21 284.7 136.27 287.5 136.97 294.219C137.53 299.259 136.83 304.578 136.13 309.618C135.43 315.077 134.17 320.537 132.91 325.996C130.111 337.335 125.071 340.975 113.312 341.255C109.812 341.395 105.893 341.395 102.813 342.795C95.8137 345.874 93.5739 352.174 93.5739 359.453C93.4339 374.852 93.4339 390.251 93.4339 405.789C93.4339 428.607 93.4339 451.285 93.4339 474.103C93.4339 476.343 93.2939 478.583 92.5939 480.822C91.0541 486.002 86.5745 489.082 81.5349 487.262C72.4358 484.042 63.4766 479.983 54.6573 475.923C51.1576 474.383 47.798 472.143 44.4383 470.183C37.4389 466.264 34.2192 460.244 34.9191 452.265C36.319 436.446 37.7189 420.628 39.2587 404.809C40.5186 392.35 42.0585 379.751 43.3184 367.293C43.5983 364.353 43.5983 361.273 43.4583 358.333C43.1784 349.794 38.5588 344.895 29.8796 344.895C23.7201 344.895 17.5607 345.595 11.4012 346.014C5.10177 346.434 1.04213 342.935 0.482179 336.775C0.202204 332.716 0.202204 328.796 0.0622167 326.556Z" fill="#FF7300"/>
<path d="M503.317 396.549C503.317 362.252 503.317 327.955 503.317 293.659C503.317 283.999 507.377 280.5 517.036 281.2C527.675 281.9 538.314 282.74 548.953 283.439C558.052 283.999 562.532 288.479 562.532 297.718C562.532 318.716 562.392 339.714 562.252 360.573C561.832 398.929 561.272 437.286 560.852 475.642C560.852 480.262 560.292 484.881 560.292 489.501C560.152 496.22 556.932 501.68 550.913 503.64C537.894 507.559 524.595 510.499 511.296 513.439C507.097 514.279 503.037 510.779 502.477 506.16C501.777 499.3 501.917 492.441 501.917 485.581C501.637 455.904 503.317 399.069 503.317 396.549Z" fill="#FF7300"/>
</svg>
